<?xml version="1.0" standalone="no"?>
<!DOCTYPE svg PUBLIC "-//W3C//DTD SVG 20010904//EN"
 "http://www.w3.org/TR/2001/REC-SVG-20010904/DTD/svg10.dtd">
<svg version="1.0" xmlns="http://www.w3.org/2000/svg"
 width="477.000000pt" height="477.000000pt" viewBox="0 0 477.000000 477.000000"
 preserveAspectRatio="xMidYMid meet">
<metadata>
Created by potrace 1.14, written by Peter Selinger 2001-2017
</metadata>
<g transform="translate(0.000000,477.000000) scale(0.100000,-0.100000)"
fill="#000000" stroke="none">
<path d="M2417 4709 c-81 -13 -151 -63 -259 -188 -16 -17 -28 -37 -28 -44 0
-7 -9 -32 -21 -56 -25 -51 -116 -324 -128 -383 -5 -24 -32 -133 -61 -243 -28
-110 -54 -211 -56 -225 -3 -14 -9 -41 -14 -60 -5 -19 -12 -50 -15 -69 -3 -19
-10 -42 -15 -52 -6 -9 -12 -35 -15 -56 -4 -21 -10 -52 -16 -69 -5 -17 -11 -40
-14 -50 -2 -10 -13 -57 -25 -104 -12 -47 -30 -121 -41 -165 -11 -44 -26 -101
-35 -126 -8 -25 -16 -54 -18 -65 -3 -10 -15 -55 -29 -99 -14 -44 -25 -87 -25
-95 1 -8 -7 -44 -16 -80 -9 -36 -19 -81 -22 -100 -3 -19 -10 -55 -16 -80 -16
-72 -17 -78 -43 -220 -31 -169 -30 -166 -45 -218 -6 -24 -13 -58 -15 -75 -2
-18 -8 -54 -15 -82 -6 -27 -13 -61 -15 -75 -2 -14 -8 -56 -14 -95 -6 -38 -13
-90 -16 -115 -7 -78 -17 -125 -27 -137 -6 -7 -8 -13 -5 -13 11 0 -23 -84 -49
-121 -27 -39 -103 -83 -171 -97 -38 -9 -44 -7 -66 17 -14 14 -32 43 -41 65
-15 37 -15 40 5 72 11 19 27 34 34 34 7 0 19 2 27 5 7 3 25 -6 40 -20 24 -22
26 -28 17 -55 -12 -33 -26 -39 -35 -15 -8 19 -34 20 -34 1 0 -20 28 -46 50
-46 27 0 50 38 50 81 0 31 -6 40 -38 62 -33 24 -42 25 -74 16 -70 -19 -96 -90
-60 -166 17 -37 65 -93 81 -93 31 0 154 49 194 76 26 19 49 34 52 34 3 0 5
-13 5 -29 0 -17 5 -33 10 -36 6 -4 8 -10 5 -15 -3 -4 2 -23 9 -42 8 -19 17
-52 20 -74 3 -21 17 -79 32 -129 14 -49 30 -108 35 -130 6 -22 17 -44 25 -48
8 -4 14 -15 14 -22 0 -8 5 -15 11 -15 5 0 8 -4 4 -9 -3 -5 -1 -12 4 -15 5 -3
21 -29 36 -58 15 -29 33 -60 41 -69 8 -9 12 -18 9 -21 -3 -3 1 -11 10 -18 8
-7 15 -19 15 -26 0 -8 4 -14 10 -14 5 0 19 -10 32 -23 13 -12 41 -36 63 -52
22 -17 44 -36 48 -43 5 -7 12 -10 17 -7 5 3 16 -5 25 -17 8 -13 17 -21 20 -18
2 3 13 -2 23 -11 11 -9 37 -22 58 -29 22 -7 44 -16 50 -21 6 -5 14 -6 17 -2 4
3 7 1 7 -5 0 -6 9 -9 20 -7 11 2 20 -1 20 -6 0 -6 4 -8 9 -5 4 3 35 -4 67 -15
86 -31 89 -31 328 -32 183 0 221 2 230 15 6 8 29 23 51 32 22 10 47 22 55 27
8 5 26 15 40 21 14 7 27 15 30 19 3 3 21 14 40 24 19 10 37 21 40 24 12 14 99
71 110 71 6 0 9 4 5 9 -3 5 3 12 14 16 27 8 168 149 176 177 4 12 11 25 14 28
12 10 79 197 86 240 1 8 7 15 13 15 15 0 22 9 27 34 2 11 -1 21 -7 21 -7 0 -6
5 2 15 6 8 8 20 4 26 -4 8 -3 9 4 5 7 -4 12 -2 12 3 0 6 -3 11 -7 11 -5 0 -8
69 -7 153 0 83 -2 157 -5 162 -3 6 -7 18 -8 28 -3 17 0 16 26 -5 15 -13 27
-25 26 -26 -6 -6 30 -37 70 -60 31 -19 56 -24 117 -26 85 -2 87 -1 106 29 7
11 21 34 33 50 37 55 10 164 -47 185 -59 23 -124 -22 -124 -85 0 -38 11 -49
62 -63 29 -8 40 -7 49 4 6 8 10 14 8 15 -2 0 -17 3 -33 5 -80 13 -70 114 12
114 46 0 71 -37 69 -104 -3 -61 -16 -81 -65 -102 -45 -19 -156 -22 -176 -5 -9
8 -16 10 -16 5 0 -5 -21 14 -48 43 -49 54 -77 108 -61 119 13 7 -8 34 -27 34
-16 0 -25 29 -29 87 -4 54 -14 115 -29 181 -8 32 -48 157 -67 207 -11 28 -21
59 -23 70 -2 11 -11 36 -19 55 -9 19 -32 78 -52 130 -20 52 -48 120 -62 150
-33 72 -44 101 -48 125 -2 11 -11 45 -20 75 -8 30 -15 62 -15 72 0 10 -9 38
-20 61 -20 43 -23 51 -39 134 -5 24 -13 49 -20 56 -6 8 -8 16 -5 20 3 3 0 16
-7 29 -11 21 -24 68 -33 125 -2 12 -7 27 -11 32 -3 6 -8 21 -10 33 -3 12 -11
44 -20 72 -9 28 -20 67 -26 86 -6 19 -24 70 -40 112 -16 43 -29 86 -29 96 0
20 -32 132 -57 197 -8 22 -35 108 -59 190 -25 83 -51 166 -59 185 -18 43 -32
82 -34 93 0 4 -8 21 -17 39 -9 17 -18 49 -21 72 -2 23 -8 56 -13 75 -7 27 -6
131 4 193 3 24 34 66 61 84 36 24 115 4 180 -45 56 -43 119 -148 129 -217 4
-22 8 -49 10 -61 3 -11 -4 -35 -15 -53 -17 -27 -24 -31 -47 -25 -15 4 -27 7
-28 8 0 1 -9 16 -20 32 -10 17 -19 35 -20 40 0 6 -6 23 -12 38 -7 16 -12 32
-12 36 0 5 -6 14 -14 20 -38 32 -43 -75 -6 -164 30 -74 42 -93 67 -105 15 -7
30 -14 33 -14 3 -1 11 -5 18 -10 8 -4 37 -5 66 -2 55 7 64 18 81 90 18 82 -8
265 -51 347 -7 15 -15 37 -17 47 -1 11 -11 27 -20 36 -9 10 -22 27 -28 38 -32
59 -93 117 -160 150 -59 30 -146 40 -232 27z"/>
</g>
</svg>
